<svg width="177" height="40" viewBox="0 0 177 40" fill="none" xmlns="http://www.w3.org/2000/svg">
  <path d="M19.5762 35.6376C27.9899 35.6376 34.8105 28.817 34.8105 20.4033C34.8105 11.9895 27.9899 5.16888 19.5762 5.16888C11.1625 5.16888 4.3418 11.9895 4.3418 20.4033C4.3418 28.817 11.1625 35.6376 19.5762 35.6376Z" fill="#5D2F86"></path>
  <path d="M19.5762 29.0396C26.1679 29.0396 31.5116 23.696 31.5116 17.1043C31.5116 10.5125 26.1679 5.16888 19.5762 5.16888C12.9845 5.16888 7.64081 10.5125 7.64081 17.1043C7.64081 23.696 12.9845 29.0396 19.5762 29.0396Z" fill="#774a9e"></path>
  <path d="M28.2598 7.53857V32.916C25.7122 34.6916 22.6815 35.6436 19.5762 35.6436C16.4708 35.6436 13.4402 34.6916 10.8926 32.916V7.53857H28.2598Z" fill="#FFD15C"></path>
  <path d="M14.4125 7.53857V34.7365C13.1648 34.2859 11.9814 33.6739 10.8926 32.916V7.53857H14.4125Z" fill="#EDBB4C"></path>
  <path d="M19.5762 36.3994C16.4385 36.4006 13.3698 35.4787 10.7524 33.7484C8.13496 32.0181 6.08445 29.5559 4.85632 26.6686C3.62818 23.7813 3.27669 20.5964 3.84564 17.5108C4.41458 14.4252 5.87882 11.5751 8.05594 9.31568C8.12536 9.24366 8.20829 9.18601 8.29999 9.14604C8.39169 9.10607 8.49036 9.08455 8.59037 9.08271C8.69039 9.08087 8.78979 9.09875 8.88289 9.13532C8.976 9.1719 9.06099 9.22645 9.13301 9.29587C9.20503 9.36529 9.26268 9.44822 9.30265 9.53992C9.34262 9.63162 9.36414 9.73029 9.36598 9.83031C9.36782 9.93032 9.34994 10.0297 9.31337 10.1228C9.27679 10.2159 9.22224 10.3009 9.15282 10.3729C7.17472 12.4264 5.84722 15.0183 5.33693 17.8235C4.82664 20.6287 5.15631 23.5221 6.28455 26.1406C7.41278 28.7591 9.28933 30.986 11.6786 32.5418C14.068 34.0976 16.8636 34.913 19.7147 34.8857C22.5658 34.8583 25.3453 33.9895 27.7043 32.3881C30.0634 30.7868 31.8969 28.5243 32.9747 25.8846C34.0525 23.245 34.3266 20.3458 33.7626 17.5509C33.1986 14.756 31.8216 12.19 29.8045 10.1749C29.6658 10.0312 29.589 9.83882 29.5907 9.6391C29.5925 9.43938 29.6726 9.24833 29.8138 9.10711C29.955 8.96588 30.1461 8.88577 30.3458 8.88403C30.5455 8.8823 30.7379 8.95907 30.8816 9.09783C33.1165 11.3349 34.6382 14.1841 35.2545 17.2856C35.8708 20.3871 35.554 23.6017 34.3442 26.5232C33.1344 29.4448 31.0859 31.9422 28.4574 33.7C25.8288 35.4578 22.7383 36.3972 19.5762 36.3994Z" fill="black"></path>
  <path d="M28.2598 30.496C28.0577 30.496 27.864 30.4158 27.7211 30.2729C27.5783 30.1301 27.498 29.9363 27.498 29.7343V7.53857C27.498 7.33655 27.5783 7.14281 27.7211 6.99996C27.864 6.85711 28.0577 6.77686 28.2598 6.77686C28.4618 6.77686 28.6555 6.85711 28.7984 6.99996C28.9412 7.14281 29.0215 7.33655 29.0215 7.53857V29.7343C29.0215 29.9363 28.9412 30.1301 28.7984 30.2729C28.6555 30.4158 28.4618 30.496 28.2598 30.496Z" fill="black"></path>
  <path d="M25.6242 10.8741C26.3774 10.6836 27.0456 10.2474 27.5229 9.63441C28.0003 9.02143 28.2596 8.26676 28.2598 7.48983C28.2594 6.97652 28.1459 6.4696 27.9273 6.00518C27.7087 5.54076 27.3903 5.13027 26.9949 4.80294C26.5995 4.47562 26.1368 4.23952 25.6397 4.11147C25.1426 3.98342 24.6234 3.96656 24.1191 4.0621C21.117 4.62653 18.0361 4.62653 15.034 4.0621C14.5297 3.96657 14.0104 3.98344 13.5133 4.11149C13.0162 4.23954 12.5534 4.47562 12.158 4.80293C11.7625 5.13024 11.4441 5.54072 11.2254 6.00514C11.0066 6.46956 10.893 6.97649 10.8926 7.48983C10.8927 8.26665 11.1519 9.02125 11.6291 9.63421C12.1063 10.2472 12.7743 10.6835 13.5274 10.8741C17.4966 11.8826 21.655 11.8826 25.6242 10.8741Z" fill="#EDBB4C"></path>
  <path d="M10.8926 30.6103C10.6906 30.6103 10.4968 30.53 10.354 30.3872C10.2111 30.2443 10.1309 30.0506 10.1309 29.8486V7.53857C10.1309 7.33655 10.2111 7.14281 10.354 6.99996C10.4968 6.85711 10.6906 6.77686 10.8926 6.77686C11.0946 6.77686 11.2883 6.85711 11.4312 6.99996C11.574 7.14281 11.6543 7.33655 11.6543 7.53857V29.8486C11.6543 30.0506 11.574 30.2443 11.4312 30.3872C11.2883 30.53 11.0946 30.6103 10.8926 30.6103Z" fill="black"></path>
  <path d="M19.5693 12.393C17.4685 12.3929 15.3758 12.1307 13.34 11.6123C12.2529 11.3555 11.3106 10.6812 10.7166 9.73529C10.1227 8.78936 9.92479 7.64769 10.1657 6.55704C10.4067 5.46638 11.0671 4.51433 12.0043 3.90666C12.9415 3.29898 14.0801 3.08448 15.1742 3.30952C18.0829 3.85872 21.0687 3.85872 23.9774 3.30952C25.0721 3.08265 26.2121 3.29607 27.1506 3.90357C28.0892 4.51107 28.7507 5.46376 28.9919 6.5554C29.2332 7.64704 29.0348 8.78977 28.4397 9.73621C27.8446 10.6827 26.9007 11.3566 25.8124 11.6123C25.7148 11.6388 25.6129 11.6457 25.5127 11.6325C25.4125 11.6192 25.3159 11.5862 25.2286 11.5353C25.1412 11.4843 25.0649 11.4165 25.0041 11.3358C24.9432 11.2551 24.899 11.163 24.8741 11.0651C24.8492 10.9671 24.844 10.8651 24.8589 10.7651C24.8738 10.6651 24.9084 10.5691 24.9608 10.4826C25.0132 10.3962 25.0822 10.321 25.164 10.2615C25.2457 10.202 25.3384 10.1593 25.4368 10.136C26.1322 9.96911 26.7342 9.53587 27.1133 8.92954C27.4925 8.32322 27.6184 7.59229 27.4641 6.89404C27.3097 6.1958 26.8874 5.58605 26.288 5.19603C25.6887 4.806 24.9601 4.66687 24.2592 4.80858C21.1635 5.39311 17.9858 5.39311 14.8901 4.80858C14.1929 4.67588 13.4714 4.82005 12.8788 5.21049C12.2862 5.60093 11.869 6.20692 11.7158 6.89987C11.5625 7.59283 11.6854 8.31821 12.0581 8.92212C12.4309 9.52602 13.0243 9.96091 13.7125 10.1345C16.2455 10.7791 18.8675 11.0012 21.4728 10.7919C21.6712 10.7812 21.8658 10.8484 22.0153 10.9792C22.1648 11.11 22.2573 11.2939 22.2731 11.4919C22.2889 11.6899 22.2267 11.8862 22.0999 12.039C21.973 12.1919 21.7915 12.2891 21.594 12.31C20.9196 12.3653 20.2447 12.393 19.5693 12.393Z" fill="black"></path>
  <path d="M28.2598 23.9841C28.2301 23.9841 28.2004 23.9841 28.1699 23.9788C25.2643 23.6473 22.4491 22.7625 19.8763 21.3722C17.8208 20.2494 15.9462 18.8231 14.3158 17.1416C11.4852 14.2364 10.2512 11.5376 10.2025 11.4241C10.1258 11.2411 10.1235 11.0354 10.1961 10.8508C10.2688 10.6661 10.4106 10.5171 10.5914 10.4355C10.7722 10.3538 10.9778 10.3459 11.1643 10.4134C11.3509 10.481 11.5037 10.6187 11.5903 10.7972C11.6025 10.8231 12.7893 13.4038 15.45 16.1201C16.9733 17.6833 18.7229 19.0085 20.6403 20.0513C23.0329 21.3382 25.6489 22.1575 28.3481 22.4652C28.5422 22.4865 28.7207 22.5816 28.8468 22.7307C28.9728 22.8799 29.0368 23.0717 29.0254 23.2666C29.0141 23.4616 28.9283 23.6447 28.7858 23.7782C28.6433 23.9117 28.455 23.9854 28.2598 23.9841Z" fill="black"></path>
  <path d="M19.5762 21.0888C19.4091 21.0889 19.2467 21.034 19.1138 20.9327C18.981 20.8313 18.8852 20.6892 18.8411 20.528C18.7971 20.3669 18.8072 20.1957 18.8699 20.0409C18.9327 19.8861 19.0446 19.7562 19.1885 19.6712C25.0598 16.2085 27.5399 10.8513 27.5674 10.7972C27.6505 10.6131 27.8034 10.4695 27.9924 10.3981C28.1813 10.3266 28.391 10.3332 28.5751 10.4164C28.7593 10.4995 28.9028 10.6524 28.9743 10.8414C29.0457 11.0303 29.0391 11.24 28.956 11.4241C28.8493 11.661 26.2694 17.265 19.9677 20.9829C19.8492 21.0532 19.7139 21.0898 19.5762 21.0888Z" fill="black"></path>
  <path d="M19.5853 8.71012C17.4014 8.71085 15.2261 8.43676 13.1107 7.89432C12.915 7.84381 12.7475 7.71765 12.6448 7.54359C12.5422 7.36953 12.5129 7.16182 12.5634 6.96616C12.6139 6.77051 12.7401 6.60293 12.9141 6.50029C13.0882 6.39765 13.2959 6.36836 13.4916 6.41887C17.4896 7.44249 21.681 7.44249 25.6791 6.41887C25.8747 6.36836 26.0824 6.39765 26.2565 6.50029C26.4305 6.60293 26.5567 6.77051 26.6072 6.96616C26.6577 7.16182 26.6284 7.36953 26.5258 7.54359C26.4231 7.71765 26.2556 7.84381 26.0599 7.89432C23.9445 8.43671 21.7692 8.7108 19.5853 8.71012Z" fill="black"></path>
  <path d="M22.898 33.2382C22.8482 33.238 22.7984 33.2329 22.7495 33.223C22.7007 33.2131 22.653 33.1986 22.6071 33.1796C22.5611 33.1603 22.517 33.1368 22.4753 33.1095C22.4337 33.0819 22.3949 33.0502 22.3595 33.015C22.3241 32.9798 22.2925 32.941 22.2651 32.8992C22.2374 32.8578 22.2139 32.8136 22.195 32.7675C22.1759 32.7215 22.1614 32.6738 22.1516 32.625C22.1323 32.5269 22.1323 32.426 22.1516 32.328C22.1615 32.279 22.176 32.231 22.195 32.1848C22.2141 32.1389 22.2375 32.0951 22.2651 32.0537C22.2925 32.012 22.3241 31.9732 22.3595 31.938C22.3951 31.9027 22.4339 31.8709 22.4753 31.8427C22.517 31.8154 22.5611 31.7919 22.6071 31.7727C22.7936 31.6955 23.0032 31.6955 23.1898 31.7728C23.3763 31.8501 23.5245 31.9982 23.6019 32.1848C23.6208 32.231 23.6354 32.279 23.6453 32.328C23.6646 32.426 23.6646 32.5269 23.6453 32.625C23.6355 32.6738 23.6209 32.7215 23.6019 32.7675C23.5829 32.8136 23.5595 32.8578 23.5318 32.8992C23.4625 33.0038 23.3683 33.0895 23.2577 33.1486C23.147 33.2078 23.0235 33.2386 22.898 33.2382Z" fill="black"></path>
  <path d="M23.2789 30.2675C23.077 30.2668 22.8835 30.1866 22.7403 30.0443C22.705 30.0091 22.6733 29.9703 22.6459 29.9286C22.6184 29.8872 22.5949 29.8434 22.5758 29.7975C22.557 29.7515 22.5424 29.7038 22.5324 29.6551C22.5222 29.605 22.5171 29.5539 22.5172 29.5028C22.517 29.4516 22.5221 29.4005 22.5324 29.3504C22.5422 29.3016 22.5568 29.2539 22.5758 29.208C22.5947 29.1618 22.6182 29.1177 22.6459 29.0762C22.6733 29.0345 22.705 28.9957 22.7403 28.9604C22.8292 28.8727 22.938 28.808 23.0574 28.7718C23.1769 28.7355 23.3033 28.7289 23.4259 28.7525C23.4747 28.762 23.5224 28.7766 23.5683 28.7959C23.6609 28.8339 23.745 28.8898 23.8159 28.9604C23.851 28.9959 23.8827 29.0346 23.9103 29.0762C23.938 29.1177 23.9615 29.1618 23.9804 29.208C23.9995 29.2539 24.014 29.3016 24.0238 29.3504C24.0338 29.4006 24.0387 29.4516 24.0383 29.5028C24.0386 29.5539 24.0338 29.6049 24.0238 29.6551C24.0138 29.7038 23.9993 29.7515 23.9804 29.7975C23.942 29.8897 23.8862 29.9735 23.8159 30.0443C23.7801 30.0794 23.7414 30.1112 23.7001 30.1396C23.6584 30.1669 23.6143 30.1904 23.5683 30.2096C23.5223 30.2286 23.4746 30.2431 23.4259 30.253C23.3775 30.2627 23.3282 30.2675 23.2789 30.2675Z" fill="black"></path>
  <path d="M25.6402 31.7529C25.5904 31.7526 25.5406 31.7478 25.4917 31.7384C25.4429 31.7283 25.3952 31.7135 25.3492 31.6942C25.3032 31.6751 25.2591 31.6516 25.2175 31.6241C25.1339 31.569 25.0624 31.4975 25.0072 31.4139C24.9796 31.3724 24.9561 31.3282 24.9372 31.2821C24.9181 31.2361 24.9036 31.1884 24.8937 31.1397C24.8734 31.0417 24.8734 30.9406 24.8937 30.8426C24.9036 30.7938 24.9181 30.7461 24.9372 30.7002C24.9561 30.654 24.9796 30.6099 25.0072 30.5684C25.0624 30.4848 25.1339 30.4133 25.2175 30.3581C25.2591 30.3306 25.3032 30.3072 25.3492 30.2881C25.3952 30.269 25.4429 30.2545 25.4917 30.2446C25.59 30.2248 25.6912 30.2248 25.7895 30.2446C25.8383 30.2546 25.886 30.2691 25.932 30.2881C25.9778 30.3072 26.0217 30.3306 26.063 30.3581C26.1047 30.3856 26.1435 30.4172 26.1788 30.4526C26.2141 30.488 26.246 30.5268 26.274 30.5684C26.3016 30.6099 26.3251 30.654 26.3441 30.7002C26.3631 30.7461 26.3776 30.7938 26.3875 30.8426C26.4068 30.9407 26.4068 31.0416 26.3875 31.1397C26.3776 31.1884 26.3631 31.2361 26.3441 31.2821C26.3251 31.3282 26.3016 31.3724 26.274 31.4139C26.246 31.4555 26.2141 31.4942 26.1788 31.5297C26.1435 31.565 26.1047 31.5967 26.063 31.6241C26.0217 31.6516 25.9778 31.6751 25.932 31.6942C25.886 31.7134 25.8383 31.7282 25.7895 31.7384C25.7403 31.7478 25.6903 31.7526 25.6402 31.7529Z" fill="black"></path>
  <path d="M13.1777 19.7565C13.1278 19.7564 13.0781 19.7513 13.0292 19.7413C12.9804 19.7315 12.9327 19.7169 12.8868 19.6979C12.8406 19.679 12.7965 19.6555 12.755 19.6278C12.6714 19.5727 12.5999 19.5011 12.5447 19.4176C12.5171 19.3761 12.4936 19.3319 12.4747 19.2858C12.4553 19.24 12.4407 19.1922 12.4313 19.1434C12.4212 19.0945 12.4161 19.0447 12.416 18.9948C12.416 18.9437 12.4211 18.8926 12.4313 18.8425C12.4409 18.7937 12.4555 18.7459 12.4747 18.7C12.4938 18.6542 12.5172 18.6103 12.5447 18.569C12.5722 18.5273 12.6038 18.4885 12.6392 18.4532C12.6746 18.4178 12.7134 18.386 12.755 18.358C12.7965 18.3303 12.8406 18.3069 12.8868 18.2879C12.9327 18.2689 12.9804 18.2544 13.0292 18.2445C13.1272 18.2247 13.2282 18.2247 13.3263 18.2445C13.375 18.2544 13.4227 18.2689 13.4687 18.2879C13.5149 18.3069 13.559 18.3303 13.6005 18.358C13.6421 18.386 13.6808 18.4178 13.7163 18.4532C13.7516 18.4885 13.7833 18.5273 13.8107 18.569C13.8382 18.6103 13.8617 18.6542 13.8808 18.7C13.9 18.7459 13.9145 18.7937 13.9242 18.8425C13.9344 18.8926 13.9395 18.9437 13.9395 18.9948C13.9393 19.0447 13.9342 19.0945 13.9242 19.1434C13.9147 19.1922 13.9002 19.24 13.8808 19.2858C13.8619 19.3319 13.8384 19.3761 13.8107 19.4176C13.7556 19.5011 13.6841 19.5727 13.6005 19.6278C13.559 19.6555 13.5149 19.679 13.4687 19.6979C13.4239 19.7157 13.3775 19.7292 13.3301 19.7383C13.2801 19.7495 13.229 19.7557 13.1777 19.7565Z" fill="black"></path>
  <path d="M13.1777 22.2702C13.1278 22.2701 13.0781 22.265 13.0292 22.255C12.9804 22.2451 12.9327 22.2306 12.8867 22.2116C12.8406 22.1926 12.7965 22.1692 12.755 22.1415C12.7132 22.114 12.6744 22.0824 12.6392 22.047C12.604 22.0116 12.5724 21.9728 12.5447 21.9312C12.5172 21.8897 12.4938 21.8455 12.4747 21.7995C12.4553 21.7536 12.4407 21.7059 12.4312 21.657C12.4109 21.5588 12.4109 21.4574 12.4312 21.3592C12.4407 21.3103 12.4553 21.2626 12.4747 21.2168C12.5315 21.0771 12.6292 20.9579 12.755 20.8747C12.7965 20.8471 12.8406 20.8236 12.8867 20.8047C12.9327 20.7856 12.9804 20.7711 13.0292 20.7612C13.1272 20.7414 13.2282 20.7414 13.3263 20.7612C13.375 20.7711 13.4227 20.7856 13.4687 20.8047C13.5148 20.8236 13.559 20.8471 13.6005 20.8747C13.7255 20.9588 13.823 21.0777 13.8808 21.2168C13.9002 21.2626 13.9147 21.3103 13.9242 21.3592C13.9445 21.4574 13.9445 21.5588 13.9242 21.657C13.9147 21.7059 13.9002 21.7536 13.8808 21.7995C13.8617 21.8455 13.8382 21.8897 13.8107 21.9312C13.7831 21.9728 13.7515 22.0116 13.7163 22.047C13.681 22.0824 13.6422 22.114 13.6005 22.1415C13.559 22.1692 13.5148 22.1926 13.4687 22.2116C13.4239 22.2293 13.3774 22.2429 13.3301 22.2519C13.28 22.2632 13.229 22.2693 13.1777 22.2702Z" fill="black"></path>
  <path d="M51.7728 21.368L51.0688 22.424V31H47.9968V8.568H51.0688V17.336L56.9568 8.568H60.4448L53.5008 18.712L61.8208 31H58.2368L51.7728 21.368ZM73.09 29.88C72.322 30.3707 71.4473 30.744 70.466 31C69.4847 31.256 68.5033 31.384 67.522 31.384C65.9433 31.384 64.6847 31 63.746 30.232C62.8287 29.4427 62.37 28.2693 62.37 26.712V20.152C62.37 18.424 62.9033 17.08 63.97 16.12C65.058 15.16 66.4873 14.68 68.258 14.68C70.0287 14.68 71.4047 15.16 72.386 16.12C73.3887 17.0587 73.89 18.3707 73.89 20.056V24.664L65.314 25.144V26.392C65.314 27.1387 65.5273 27.7147 65.954 28.12C66.402 28.504 67.0207 28.696 67.81 28.696C68.9833 28.696 70.3807 28.2693 72.002 27.416L73.09 29.88ZM70.946 20.024C70.946 19.1493 70.6687 18.5093 70.114 18.104C69.5593 17.6773 68.93 17.464 68.226 17.464C67.3087 17.464 66.594 17.72 66.082 18.232C65.57 18.7227 65.314 19.3733 65.314 20.184V22.424L70.946 22.104V20.024ZM88.6165 25.976C88.6165 27.064 88.3925 27.9813 87.9445 28.728C87.4965 29.4747 86.8885 30.04 86.1205 30.424C85.4378 30.7653 84.7445 31.0107 84.0405 31.16C83.3578 31.3093 82.6218 31.384 81.8325 31.384C81.0432 31.384 79.9552 31.3093 78.5685 31.16L76.8085 31V8.6H79.7205V15.288C80.6805 14.8827 81.7258 14.68 82.8565 14.68C83.9658 14.68 84.9792 14.8933 85.8965 15.32C87.7098 16.152 88.6165 17.688 88.6165 19.928V25.976ZM85.7365 20.6C85.7365 19.5333 85.4272 18.7653 84.8085 18.296C84.2112 17.8053 83.4538 17.56 82.5365 17.56C82.0032 17.56 81.4805 17.6347 80.9685 17.784C80.4565 17.912 80.0405 18.0827 79.7205 18.296V28.472C80.2965 28.6 80.9365 28.664 81.6405 28.664C82.7712 28.664 83.7312 28.4613 84.5205 28.056C85.3312 27.6293 85.7365 26.9573 85.7365 26.04V20.6ZM103.317 31C101.013 31.2347 99.3485 31.352 98.3245 31.352C96.0845 31.352 94.3032 30.936 92.9805 30.104C91.6578 29.272 90.9965 27.768 90.9965 25.592V22.936C90.9965 20.824 91.7325 19.4053 93.2045 18.68C93.9085 18.3387 94.7405 18.168 95.7005 18.168C96.5538 18.168 97.4178 18.296 98.2925 18.552C99.1672 18.808 99.8712 19.1067 100.405 19.448C100.405 18.552 100.063 17.88 99.3805 17.432C98.6978 16.984 97.7165 16.76 96.4365 16.76L96.6605 14.712C98.7085 14.712 100.213 15.0427 101.173 15.704C102.154 16.344 102.751 17.112 102.965 18.008C103.199 18.904 103.317 20.056 103.317 21.464V31ZM100.405 22.36C99.8498 22.04 99.1778 21.752 98.3885 21.496C97.5992 21.24 96.8632 21.112 96.1805 21.112C94.6658 21.112 93.9085 21.8267 93.9085 23.256V25.368C93.9085 27.5653 95.3165 28.664 98.1325 28.664C98.8152 28.664 99.5725 28.6 100.405 28.472V22.36ZM117.992 25.976C117.992 27.064 117.768 27.9813 117.32 28.728C116.872 29.4747 116.264 30.04 115.496 30.424C114.813 30.7653 114.12 31.0107 113.416 31.16C112.733 31.3093 111.997 31.384 111.208 31.384C110.418 31.384 109.33 31.3093 107.944 31.16L106.184 31V8.6H109.096V15.288C110.056 14.8827 111.101 14.68 112.232 14.68C113.341 14.68 114.354 14.8933 115.272 15.32C117.085 16.152 117.992 17.688 117.992 19.928V25.976ZM115.112 20.6C115.112 19.5333 114.802 18.7653 114.184 18.296C113.586 17.8053 112.829 17.56 111.911 17.56C111.378 17.56 110.856 17.6347 110.344 17.784C109.832 17.912 109.416 18.0827 109.096 18.296V28.472C109.672 28.6 110.312 28.664 111.016 28.664C112.146 28.664 113.106 28.4613 113.896 28.056C114.706 27.6293 115.112 26.9573 115.112 26.04V20.6ZM121.684 8.6H124.948L129.332 25.72L133.652 8.6H136.98L131.124 31H127.572L121.684 8.6ZM140.652 8.6H148.14C150.295 8.6 151.895 9.28267 152.94 10.648C154.007 12.0133 154.54 13.7733 154.54 15.928C154.54 18.1253 154.146 20.056 153.356 21.72C152.588 23.384 150.946 24.216 148.428 24.216H143.564V31H140.652V8.6ZM147.724 21.4C148.94 21.4 149.836 21.112 150.412 20.536C150.988 19.9387 151.33 19.288 151.436 18.584C151.564 17.8587 151.628 16.984 151.628 15.96C151.628 14.296 151.287 13.1333 150.604 12.472C149.922 11.8107 148.919 11.48 147.596 11.48H143.564V21.4H147.724ZM161.127 14.488V31H158.215V8.6H161.127L171.015 25.048V8.6H173.959V31H171.015L161.127 14.488Z" fill="#2C2C2C"></path>
</svg>